<?xml version="1.0" encoding="UTF-8" standalone="no"?>
<svg
   xmlns:dc="http://purl.org/dc/elements/1.1/"
   xmlns:cc="http://creativecommons.org/ns#"
   xmlns:rdf="http://www.w3.org/1999/02/22-rdf-syntax-ns#"
   xmlns:svg="http://www.w3.org/2000/svg"
   xmlns="http://www.w3.org/2000/svg"
   xmlns:sodipodi="http://sodipodi.sourceforge.net/DTD/sodipodi-0.dtd"
   xmlns:inkscape="http://www.inkscape.org/namespaces/inkscape"
   id="svg8"
   version="1.1"
   viewBox="0 0 400 400"
   height="400"
   width="400"
   sodipodi:docname="schematic-2way.svg"
   inkscape:version="0.92.5 (2060ec1f9f, 2020-04-08)">
  <sodipodi:namedview
     pagecolor="#ffffff"
     bordercolor="#666666"
     borderopacity="1"
     objecttolerance="10"
     gridtolerance="10"
     guidetolerance="10"
     inkscape:pageopacity="0"
     inkscape:pageshadow="2"
     inkscape:window-width="1920"
     inkscape:window-height="1000"
     id="namedview973"
     showgrid="false"
     inkscape:pagecheckerboard="true"
     inkscape:zoom="2.9026734"
     inkscape:cx="194.55769"
     inkscape:cy="322.52688"
     inkscape:window-x="1600"
     inkscape:window-y="28"
     inkscape:window-maximized="1"
     inkscape:current-layer="svg8" />
  <defs
     id="defs2" />
  <metadata
     id="metadata5">
    <rdf:RDF>
      <cc:Work
         rdf:about="">
        <dc:format>image/svg+xml</dc:format>
        <dc:type
           rdf:resource="http://purl.org/dc/dcmitype/StillImage" />
        <dc:title />
      </cc:Work>
    </rdf:RDF>
  </metadata>
  <rect
     style="fill:#ffffff;fill-opacity:0.29411766;stroke:none;stroke-width:44.47268677;stroke-miterlimit:4;stroke-dasharray:none"
     id="rect977"
     width="400"
     height="400"
     x="0"
     y="1.1444092e-05" />
  <g
     transform="translate(0,-191.16665)"
     id="layer1" />
  <g
     id="layer2">
    <g
       transform="translate(50,-250.00001)"
       id="switch1">
      <title
         id="title4616">Switch1</title>
      <rect
         style="fill:#cccccc;fill-opacity:1;stroke:#000000;stroke-width:3.99999976;stroke-miterlimit:4;stroke-dasharray:none"
         id="switch1-frame"
         width="96"
         height="96.000008"
         x="1.9999999"
         y="302" />
      <circle
         style="fill:#000000;fill-opacity:1;stroke:#000000;stroke-width:4;stroke-miterlimit:4;stroke-dasharray:none"
         id="switch1-common"
         cx="50"
         cy="375"
         r="3">
        <title
           id="title4555">Common</title>
      </circle>
      <circle
         style="fill:#000000;fill-opacity:1;stroke:#000000;stroke-width:4;stroke-miterlimit:4;stroke-dasharray:none"
         id="switch1-1"
         cx="25"
         cy="325"
         r="3">
        <title
           id="title4557">1</title>
      </circle>
      <circle
         style="fill:#000000;fill-opacity:1;stroke:#000000;stroke-width:4;stroke-miterlimit:4;stroke-dasharray:none"
         id="switch1-2"
         cx="75"
         cy="325"
         r="3">
        <title
           id="title4559">2</title>
      </circle>
      <path
         style="fill:#ffffff;stroke:#333333;stroke-width:4;stroke-linecap:butt;stroke-linejoin:miter;stroke-miterlimit:4;stroke-dasharray:none;stroke-opacity:1"
         d="m 24.78824,326.12124 25.034462,49.9831"
         id="switch1-sel" />
    </g>
    <g
       transform="translate(250,-250.00001)"
       id="switch2">
      <title
         id="title4614">Switch2</title>
      <rect
         style="fill:#cccccc;fill-opacity:1;stroke:#000000;stroke-width:3.99999976;stroke-miterlimit:4;stroke-dasharray:none"
         id="switch1-frame-5"
         width="96"
         height="96.000008"
         x="1.9999999"
         y="302" />
      <circle
         style="fill:#000000;fill-opacity:1;stroke:#000000;stroke-width:4;stroke-miterlimit:4;stroke-dasharray:none"
         id="switch1-common-3"
         cx="50"
         cy="375"
         r="3">
        <title
           id="title4555-5">Common</title>
      </circle>
      <circle
         style="fill:#000000;fill-opacity:1;stroke:#000000;stroke-width:4;stroke-miterlimit:4;stroke-dasharray:none"
         id="switch2-1"
         cx="25"
         cy="325"
         r="3">
        <title
           id="title4557-2">1</title>
      </circle>
      <circle
         style="fill:#000000;fill-opacity:1;stroke:#000000;stroke-width:4;stroke-miterlimit:4;stroke-dasharray:none"
         id="switch2-2"
         cx="75"
         cy="325"
         r="3">
        <title
           id="title4559-1">2</title>
      </circle>
      <path
         style="fill:#ffffff;stroke:#333333;stroke-width:4;stroke-linecap:butt;stroke-linejoin:miter;stroke-miterlimit:4;stroke-dasharray:none;stroke-opacity:1"
         d="m 24.78824,326.12124 25.034462,49.9831"
         id="switch2-sel" />
    </g>
  </g>
  <g
     id="layer4">
    <path
       id="permlive"
       d="M 99.999999,125 V 400"
       style="fill:#550000;stroke:#550000;stroke-width:3.99999976;stroke-linecap:butt;stroke-linejoin:miter;stroke-miterlimit:4;stroke-dasharray:none;stroke-opacity:1">
      <title
         id="title4624">Permanent Live</title>
    </path>
    <path
       id="switchwire1"
       d="M 74.78824,75.371272 V 8.0000014 H 325 V 75.375001"
       style="fill:none;stroke:#4d4d4d;stroke-width:4;stroke-linecap:butt;stroke-linejoin:miter;stroke-miterlimit:4;stroke-dasharray:none;stroke-opacity:1">
      <title
         id="title4761">Switch Wire 1</title>
    </path>
    <path
       id="switchwire2"
       d="M 124.99065,76.069767 V 29.5 H 274.7529 v 46.052325"
       style="fill:none;stroke:#4d4d4d;stroke-width:4;stroke-linecap:butt;stroke-linejoin:miter;stroke-miterlimit:4;stroke-dasharray:none;stroke-opacity:1">
      <title
         id="title4763">Switch Wire 2</title>
    </path>
    <path
       id="switchedlive"
       d="M 300,126.34118 V 212.5"
       style="fill:#550000;stroke:#550000;stroke-width:4;stroke-linecap:butt;stroke-linejoin:miter;stroke-miterlimit:4;stroke-dasharray:none;stroke-opacity:1">
      <title
         id="title4767">Switched Live</title>
    </path>
    <path
       id="neutral"
       d="m 300.00874,298.99998 v 101"
       style="fill:#550000;stroke:#000080;stroke-width:3.99999976;stroke-linecap:butt;stroke-linejoin:miter;stroke-miterlimit:4;stroke-dasharray:none;stroke-opacity:1">
      <title
         id="title4767-3">Neutral</title>
    </path>
  </g>
  <g
     id="layer5">
    <g
       style="stroke-width:4.82552147"
       id="layer1-0"
       transform="matrix(0.20684718,0,0,0.20761652,223.63009,186.84097)">
      <g
         style="stroke-width:4.82552147"
         id="lamp">
        <title
           id="title4759">Lamp</title>
        <path
           d="m 369.44,121.87 c -66.79,-2.19 -126.85,62.44 -118.97,129.01 2.01,29.34 17.37,55.62 35.47,77.94 17.77,29.83 26.2,64.42 27.57,98.91 3.49,19.24 24.51,26.84 41.84,27.54 19.83,1.65 40.59,-0.18 59.08,-7.57 16.5,-11.99 12.95,-34.49 16.31,-52.14 3.96,-33.98 19.04,-65.79 40.34,-92.29 33.33,-50.95 17.48,-126.51 -33.33,-160.01 -19.92,-13.77 -44.04,-21.57 -68.31,-21.39 z"
           style="fill:#f3f2f3;fill-opacity:0.83332998;stroke:#000000;stroke-width:2.84512734"
           id="path1384" />
        <path
           d="m 425.73,154.08 c 11.95,10.8 27.96,27.96 25.45,49.74 4.82,-3.27 9.64,-6.55 14.46,-9.83 -5.78,-23.72 -17.35,-31.24 -39.91,-39.91 z"
           style="fill:#fefefe;fill-rule:evenodd;stroke-width:4.82552147"
           id="path2153" />
        <ellipse
           transform="matrix(0.8181,0,0,0.89615,-13.895,-26.687)"
           style="fill:#fefefe;stroke-width:4.82552147"
           id="path2881"
           cx="469.87827"
           cy="296.94009"
           rx="37.120701"
           ry="18.718985" />
        <path
           d="m 359.21,314.31 -22.56,-69.99 c 25.64,-13.69 46.08,-10.03 66.52,-1.16 l -23.72,72.3"
           style="fill:none;stroke:#8f9595;stroke-width:4.39894533px"
           id="path3617" />
        <ellipse
           transform="matrix(0.98244,0,0,1.3878,-83.525,-281.27)"
           style="fill:#a0a0a0;stroke-width:4.82552147"
           id="path4361"
           cx="461.22711"
           cy="514.323"
           rx="52.508934"
           ry="11.885468" />
        <path
           d="m 315.88,433.08 c 3.27,9.82 13.15,15.74 22.89,17.61 23.23,5.69 47.98,4.69 70.86,-2.11 4.66,-1.39 9.55,-3.16 12.44,-7.33 1.36,-1.41 3.62,-6.79 2,-6.95 -12.26,9.87 -28.31,13.49 -43.73,14.26 -17.49,0.5 -35.69,-0.29 -51.82,-7.77 -4.49,-2.07 -8.76,-4.64 -12.64,-7.71 z"
           style="fill:#d6dee6;fill-rule:evenodd;stroke-width:4.82552147"
           id="path4363" />
        <path
           d="m 400.47,522.16 c -3.98,5.93 -7.97,11.86 -11.96,17.79 -4.58,1.52 -21.52,6.5 -34.93,-1.94 -3.24,-5.71 -6.47,-11.43 -9.71,-17.14 20.49,10.78 52.62,3.13 56.6,1.29 z"
           style="fill:#090a0c;fill-rule:evenodd;stroke:#000000;stroke-width:4.39894533px"
           id="path5094" />
        <path
           d="m 419.66,444.28 c 0.31,2.12 0.62,4.24 0.94,6.36 0.86,0.32 1.73,0.63 2.59,0.94 v 4.01 c -0.86,0.39 -1.73,0.79 -2.59,1.18 -0.24,2.44 -0.47,4.87 -0.71,7.31 0.63,0.15 1.26,0.31 1.89,0.47 -0.08,2.04 -0.16,4.08 -0.24,6.13 -0.71,0.78 -1.41,1.57 -2.12,2.35 0.16,1.02 0.31,2.05 0.47,3.07 1.02,1.02 2.04,2.04 3.07,3.06 l -0.24,3.06 c -0.71,0.79 -1.41,1.58 -2.12,2.36 -0.24,0.47 -0.47,0.94 -0.71,1.42 -0.31,0.7 -0.63,1.41 -0.94,2.12 0.16,0.94 0.31,1.88 0.47,2.83 0.47,0.7 0.94,1.41 1.41,2.12 -0.15,1.65 -0.31,3.3 -0.47,4.95 -5.34,7.22 -10.68,14.45 -16.02,21.68 l -3.54,1.65 c -2.99,0.94 -5.97,1.89 -8.96,2.83 -5.5,0.63 -11,1.26 -16.49,1.88 -3.38,-0.15 -6.76,-0.31 -10.14,-0.47 -2.75,-0.08 -5.5,-0.15 -8.25,-0.23 -3.53,-0.87 -7.07,-1.73 -10.6,-2.6 l -3.54,-2.82 c -3.06,-2.13 -6.13,-4.25 -9.19,-6.37 -4.87,-5.26 -9.74,-10.53 -14.62,-15.79 v -3.77 h 2.6 c -0.47,-1.18 -0.95,-2.36 -1.42,-3.54 -1.1,-2.27 -2.2,-4.55 -3.3,-6.83 v -2.12 c 1.5,-1.26 2.99,-2.52 4.48,-3.77 -1.33,-2.2 -2.67,-4.4 -4.01,-6.6 -0.07,-0.32 -0.15,-0.63 -0.23,-0.95 1.33,-1.8 2.67,-3.61 4.01,-5.42 -0.4,-1.1 -0.79,-2.2 -1.18,-3.3 -0.87,-1.1 -1.73,-2.2 -2.6,-3.3 -0.23,-0.86 -0.47,-1.72 -0.7,-2.59 1.1,-1.41 2.2,-2.83 3.3,-4.24 -0.08,-1.34 -0.16,-2.67 -0.24,-4.01 -0.39,-0.63 -0.78,-1.26 -1.18,-1.88 0.08,-0.71 0.16,-1.42 0.24,-2.12 0.71,-0.08 1.41,-0.16 2.12,-0.24 3.14,2.12 6.29,4.24 9.43,6.36 17.75,7.47 61.44,11.63 89.33,-5.18 z"
           style="fill:#fba246;fill-rule:evenodd;stroke:#000000;stroke-width:4.39894533px"
           id="path7284" />
        <path
           d="m 389.86,523.01 c -0.39,-1.18 1.37,-0.74 0.98,-1.92 -7.46,-0.08 -14.93,-0.16 -22.39,-0.24 v -0.94 c 5.66,-0.16 11.31,-0.31 16.97,-0.47 2.83,-0.55 5.66,-1.1 8.48,-1.65 1.5,-0.24 2.99,-0.47 4.48,-0.71 3.07,-2.04 6.13,-4.08 9.19,-6.13 -0.07,-0.31 -0.15,-0.62 -0.23,-0.94 -5.97,0.47 -11.94,0.94 -17.91,1.42 -2.12,0.39 -4.25,0.78 -6.37,1.17 -3.93,-0.23 -7.85,-0.47 -11.78,-0.7 -1.49,-0.16 -2.99,-0.32 -4.48,-0.47 -2.36,-1.1 -4.71,-2.2 -7.07,-3.3 16.81,-0.95 37.16,-0.95 55.39,-14.15 -23.81,8.18 -43.84,6.21 -60.11,4.01 20.9,-3.93 41.57,-4.79 61.99,-19.56 -29.62,11 -50.75,7.15 -67.64,5.42 22.15,-4.56 54.21,-5.58 65.05,-17.21 -31.35,8.25 -58.45,6.84 -75.66,2.83 14.07,-1.88 28.13,-3.77 42.19,-5.65 -6.83,-0.63 -13.67,-1.26 -20.5,-1.89 12.88,-2.2 25.77,-4.4 38.65,-6.6 -17.21,0.86 -52.56,5.5 -79.19,-10.84 3.77,3.14 8.72,5.34 11.31,9.43 -3.93,-0.48 -7.86,-0.95 -11.78,-1.42 0.23,1.34 0.47,2.67 0.7,4.01 4.01,2.51 8.02,5.03 12.02,7.54 -4.71,2.2 -9.43,4.4 -14.14,6.6 5.89,1.89 11.79,3.77 17.68,5.66 -5.66,2.35 -13.2,0 -16.97,7.07 6.83,3.22 16.5,3.85 20.5,9.66 -5.89,0.47 -12.49,-3.77 -17.67,1.42 6.12,3.61 12.25,7.22 18.38,10.84 -3.38,-0.47 -6.76,-0.95 -10.13,-1.42 4.79,5.42 11.47,9.5 16.26,14.92 15.95,1.49 27.85,2.71 43.8,4.21 z"
           style="fill:#ffc080;fill-rule:evenodd;stroke-width:4.82552147"
           id="path6556" />
        <path
           d="m 410.64,448.39 c -34.73,11.08 -63.56,4.95 -80.14,0 2.04,0.71 4.09,1.41 6.13,2.12 28.67,10.06 60.18,2.91 71.18,-0.24 0.94,-0.62 1.88,-1.25 2.83,-1.88 z"
           style="fill:#ffffff;fill-rule:evenodd;stroke-width:4.82552147"
           id="path7286" />
        <path
           d="m 431.22,368.34 c -3.48,20.37 -6.96,40.75 -10.43,61.12 -4.18,7.61 -12.85,10.84 -20.72,13.15 -8.58,2.58 -17.67,2.45 -26.53,2.01 -2.46,1.77 -8.55,-1.7 -3.47,-2.81 7.1,-0.82 14.53,0.3 21.32,-2.54 9.65,-3.79 18.88,-9.3 25.67,-17.26 4.14,-18.06 8.28,-36.11 12.42,-54.17 0.58,0.17 1.16,0.33 1.74,0.5 z"
           style="fill:#ffffff;fill-opacity:0.64286002;fill-rule:evenodd;stroke-width:4.82552147"
           id="path3629" />
        <path
           d="m 353.42,428.84 -2.31,-9.83 0.58,-40.78 1.44,-4.78 -0.07,-34.16 -3.11,-3 -0.58,-20.25 c 14.5,-11.54 27.19,-9.82 39.34,0.2 l -0.58,20.05 -2.89,2.89 -0.58,34.4 1.73,4.63 -0.58,49.47 -3.47,2.32 -8.09,-1.16 -2.9,-3.47 h -5.2 l -5.21,4.05 z"
           style="fill:#c1c1c1;fill-rule:evenodd;stroke:#9b989f;stroke-width:4.39894533px"
           id="path3619" />
        <path
           d="m 358.26,325.32 v 91.1"
           style="fill:none;stroke:#ffffff;stroke-width:4.39894533px"
           id="path5096" />
        <path
           d="m 380.15,325.32 v 91.1"
           style="fill:none;stroke:#ffffff;stroke-width:4.39894533px"
           id="path5824" />
        <path
           d="m 361.91,325.32 v 91.1"
           style="fill:none;stroke:#8f8f92;stroke-width:4.39894533px"
           id="path5826" />
        <path
           d="m 376.52,325.32 v 91.1"
           style="fill:none;stroke:#8f8f92;stroke-width:4.39894533px"
           id="path6554" />
        <g
           transform="matrix(0.9116,0,0,0.9116,328.6,-156.25)"
           id="g9475"
           style="stroke-width:4.82552147">
          <path
             d="m 86.864,673.57 -7.664,3.4 -2.044,1.71 -1.363,1.02 -10.219,-0.34 -0.17,-1.02 5.279,-1.37 c 0,0 3.748,-0.34 4.429,-0.51 0.681,-0.17 3.577,-1.53 3.577,-1.53 l 5.961,-3.41 h 2.384 z"
             style="fill:#ffffff;fill-rule:evenodd;stroke-width:4.82552147"
             id="path8741" />
          <path
             d="m 91.974,686.34 -3.918,-0.17 -2.725,1.36 -4.258,1.71 -3.236,2.21 -2.725,0.85 -4.258,0.34 -1.533,0.51 1.703,0.69 h 4.939 l 4.258,0.68 3.407,-0.68 3.917,-3.41 c 0,0 2.725,-1.19 3.407,-1.53 0.681,-0.34 2.214,-1.03 2.214,-1.03 z"
             style="fill:#ffffff;fill-rule:evenodd;stroke-width:4.82552147"
             id="path8743" />
          <path
             d="m 94.018,700.31 -4.94,2.72 -3.236,2.05 -2.384,1.87 -5.621,1.19 h -2.214 l 5.961,1.88 4.769,-2.05 4.939,-2.38 1.533,-1.54 z"
             style="fill:#ffffff;fill-rule:evenodd;stroke-width:4.82552147"
             id="path8745" />
          <path
             d="m 91.463,717.85 c 0,0 -9.538,3.75 -9.879,4.43 -0.341,0.68 -2.895,1.7 -2.895,1.7 l -5.791,0.68 -1.874,1.03 5.621,0.68 5.791,-1.88 4.258,-0.17 3.236,-2.21 1.533,-1.7 z"
             style="fill:#ffffff;fill-rule:evenodd;stroke-width:4.82552147"
             id="path8747" />
        </g>
        <path
           d="m 378.14,525.29 c -0.57,5.23 -0.14,12.54 -0.71,17.77 -5.15,-0.06 -9.6,0.77 -16.46,-1.34 -1.53,-4.83 -4.16,-12.41 -5.7,-17.24 1,0.25 1.42,0.39 2.55,0.46 1.13,0.07 2.98,0.03 4.08,0.1 1.11,0.07 2.35,0.03 3.41,0.09 1.07,0.07 2.1,0.1 3.1,0.15 1,0.06 1.97,0.1 2.89,0.14 0.92,0.03 3.05,0.13 3.88,0.14 0.82,0.01 0.38,-0.07 1.1,-0.1 0.71,-0.02 1.28,-0.11 1.86,-0.17 z"
           style="fill:#ffffff;fill-opacity:0.31548001;fill-rule:evenodd;stroke-width:4.82552147"
           id="path10207" />
        <path
           d="m 467.06,199.38 -13.37,9.15 -1.83,13.01 16.85,-7.33 z"
           style="fill:#fefefe;fill-rule:evenodd;stroke-width:4.82552147"
           id="path16869" />
      </g>
    </g>
  </g>
  <g
     id="layer6">
    <text
       id="text4816"
       y="72.289452"
       x="154.00655"
       style="font-style:normal;font-weight:normal;font-size:12.5592804px;line-height:1.25;font-family:sans-serif;letter-spacing:0px;word-spacing:0px;fill:#ffffff;fill-opacity:1;stroke:none;stroke-width:1.00000012"
       xml:space="preserve"><tspan
         style="font-weight:bold;fill:#ffffff;stroke-width:1.00000012"
         y="72.289452"
         x="154.00655"
         id="tspan4814">2-way switch</tspan></text>
    <text
       id="text4820"
       y="21.812836"
       x="175.4301"
       style="font-style:normal;font-weight:normal;font-size:10.51481915px;line-height:1.25;font-family:sans-serif;letter-spacing:0px;word-spacing:0px;fill:#000000;fill-opacity:1;stroke:none;stroke-width:0.99999994"
       xml:space="preserve"><tspan
         style="fill:#000000;fill-opacity:0.50196078;stroke-width:0.99999994"
         y="21.812836"
         x="175.4301"
         id="tspan4818">sequr.be</tspan></text>
  </g>
</svg>
