<?xml version="1.0" encoding="UTF-8" standalone="no"?>
<svg
   id="svg8"
   version="1.1"
   viewBox="0 0 345.44852 356.58469"
   height="356.58469"
   width="345.44852"
   sodipodi:docname="schematic-2way-momentary.svg"
   inkscape:version="1.1 (c68e22c387, 2021-05-23)"
   xmlns:inkscape="http://www.inkscape.org/namespaces/inkscape"
   xmlns:sodipodi="http://sodipodi.sourceforge.net/DTD/sodipodi-0.dtd"
   xmlns="http://www.w3.org/2000/svg"
   xmlns:svg="http://www.w3.org/2000/svg"
   xmlns:rdf="http://www.w3.org/1999/02/22-rdf-syntax-ns#"
   xmlns:cc="http://creativecommons.org/ns#"
   xmlns:dc="http://purl.org/dc/elements/1.1/">
  <sodipodi:namedview
     pagecolor="#ffffff"
     bordercolor="#666666"
     borderopacity="1"
     objecttolerance="10"
     gridtolerance="10"
     guidetolerance="10"
     inkscape:pageopacity="0"
     inkscape:pageshadow="2"
     inkscape:window-width="1858"
     inkscape:window-height="1057"
     id="namedview973"
     showgrid="false"
     inkscape:pagecheckerboard="true"
     inkscape:zoom="2"
     inkscape:cx="211.25"
     inkscape:cy="198.75"
     inkscape:window-x="54"
     inkscape:window-y="-8"
     inkscape:window-maximized="1"
     inkscape:current-layer="svg8"
     fit-margin-top="0"
     fit-margin-left="0"
     fit-margin-right="0"
     fit-margin-bottom="0" />
  <defs
     id="defs2">
    <rect
       x="163.75"
       y="50.125"
       width="85.375"
       height="60.875"
       id="rect26046" />
    <inkscape:path-effect
       effect="skeletal"
       id="path-effect200"
       is_visible="true"
       lpeversion="1"
       pattern="M 0,18.867925 C 0,8.4528302 8.4528302,0 18.867925,0 c 10.415094,0 18.867924,8.4528302 18.867924,18.867925 0,10.415094 -8.45283,18.867924 -18.867924,18.867924 C 8.4528302,37.735849 0,29.283019 0,18.867925 Z"
       copytype="single_stretched"
       prop_scale="1"
       scale_y_rel="false"
       spacing="0"
       normal_offset="0"
       tang_offset="0"
       prop_units="false"
       vertical_pattern="false"
       hide_knot="false"
       fuse_tolerance="0" />
    <inkscape:path-effect
       effect="powerstroke"
       id="path-effect163"
       is_visible="true"
       lpeversion="1"
       offset_points="0,18.8679"
       not_jump="false"
       sort_points="true"
       interpolator_type="CubicBezierJohan"
       interpolator_beta="0.2"
       start_linecap_type="zerowidth"
       linejoin_type="extrp_arc"
       miter_limit="4"
       scale_width="1"
       end_linecap_type="zerowidth" />
    <inkscape:path-effect
       effect="powerstroke"
       id="path-effect126"
       is_visible="true"
       lpeversion="1"
       offset_points="0,18.8679"
       not_jump="false"
       sort_points="true"
       interpolator_type="CubicBezierJohan"
       interpolator_beta="0.2"
       start_linecap_type="zerowidth"
       linejoin_type="extrp_arc"
       miter_limit="4"
       scale_width="1"
       end_linecap_type="zerowidth" />
  </defs>
  <metadata
     id="metadata5">
    <rdf:RDF>
      <cc:Work
         rdf:about="">
        <dc:format>image/svg+xml</dc:format>
        <dc:type
           rdf:resource="http://purl.org/dc/dcmitype/StillImage" />
      </cc:Work>
    </rdf:RDF>
  </metadata>
  <rect
     style="fill:#ffffff;fill-opacity:0.294118;stroke:none;stroke-width:39.0217;stroke-miterlimit:4;stroke-dasharray:none"
     id="rect977"
     width="345.44852"
     height="356.58469"
     x="0"
     y="0" />
  <path
     id="permlive"
     d="M 9.948512,68.978275 V 356.58466"
     style="fill:#550000;stroke:#550000;stroke-width:4.09065;stroke-linecap:butt;stroke-linejoin:miter;stroke-miterlimit:4;stroke-dasharray:none;stroke-opacity:1">
    <title
       id="title4624">Permanent Live</title>
  </path>
  <path
     id="switchedlive"
     d="m 269.94851,116.55761 v 52.52705"
     style="fill:#550000;stroke:#aa0000;stroke-width:4;stroke-linecap:butt;stroke-linejoin:miter;stroke-miterlimit:4;stroke-dasharray:none;stroke-opacity:1">
    <title
       id="title4767">Switched Live</title>
  </path>
  <path
     id="neutral"
     d="m 269.95725,255.58464 v 101"
     style="fill:#550000;stroke:#000080;stroke-width:4;stroke-linecap:butt;stroke-linejoin:miter;stroke-miterlimit:4;stroke-dasharray:none;stroke-opacity:1">
    <title
       id="title4767-3">Neutral</title>
  </path>
  <path
     d="m 269.99622,168.72786 c -13.81532,-0.45468 -26.23856,12.96357 -24.60861,26.7846 0.41577,6.09147 3.59294,11.54763 7.33687,16.18163 3.67568,6.1932 5.4194,13.37466 5.70278,20.53535 0.7219,3.99455 5.06982,5.57243 8.65449,5.71776 4.10177,0.34257 8.39592,-0.0374 12.22053,-1.57165 3.41298,-2.48933 2.67867,-7.1607 3.37367,-10.82513 0.81912,-7.05481 3.93837,-13.65909 8.34422,-19.16093 6.89422,-10.57806 3.61569,-26.26556 -6.89422,-33.22072 -4.12039,-2.85888 -9.10955,-4.47829 -14.12973,-4.44091 z"
     style="fill:#f3f2f3;fill-opacity:0.83333;stroke:#000000;stroke-width:0.589601"
     id="path1384" />
  <path
     d="m 281.63965,175.41518 c 2.47182,2.24226 5.78345,5.80496 5.26426,10.32685 0.997,-0.67891 1.99401,-1.35989 2.99101,-2.04087 -1.19558,-4.92467 -3.5888,-6.48594 -8.25527,-8.28598 z"
     style="fill:#fefefe;fill-rule:evenodd;stroke-width:1"
     id="path2153" />
  <ellipse
     style="fill:#fefefe;stroke-width:0.856236"
     id="path2881"
     cx="270.21805"
     cy="193.13231"
     rx="6.2816272"
     ry="3.4827707" />
  <path
     d="M 267.88018,208.68158 263.2137,194.1505 c 5.30356,-2.84227 9.53152,-2.0824 13.75948,-0.24084 l -4.90642,15.01068"
     style="fill:none;stroke:#8f9595;stroke-width:0.911601px"
     id="path3617" />
  <ellipse
     style="fill:#a0a0a0;stroke-width:1.16766"
     id="path4361"
     cx="270.02994"
     cy="233.22133"
     rx="10.6706"
     ry="3.4245622" />
  <path
     d="m 258.91749,233.34019 c 0.67639,2.0388 2.72004,3.26789 4.73473,3.65613 4.80506,1.18134 9.92453,0.97372 14.65719,-0.43807 0.96391,-0.28859 1.97539,-0.65607 2.57318,-1.52183 0.28131,-0.29274 0.74879,-1.40972 0.41369,-1.44294 -2.53594,2.04918 -5.85584,2.80075 -9.04542,2.96062 -3.61776,0.1038 -7.38238,-0.0602 -10.71882,-1.61318 -0.92875,-0.42977 -1.81199,-0.96334 -2.61455,-1.60073 z"
     style="fill:#d6dee6;fill-rule:evenodd;stroke-width:1"
     id="path4363" />
  <path
     d="m 276.41469,251.83467 c -0.82325,1.23117 -1.64857,2.46233 -2.47389,3.6935 -0.94736,0.31558 -4.45135,1.34951 -7.22517,-0.40278 -0.67019,-1.18549 -1.33831,-2.37305 -2.00849,-3.55854 4.2383,2.2381 10.8843,0.64984 11.70755,0.26782 z"
     style="fill:#090a0c;fill-rule:evenodd;stroke:#000000;stroke-width:0.911601px"
     id="path5094" />
  <path
     d="m 280.38409,235.6655 c 0.0641,0.44014 0.12824,0.88029 0.19443,1.32044 0.17789,0.0664 0.35785,0.1308 0.53574,0.19516 v 0.83254 c -0.17789,0.081 -0.35785,0.16402 -0.53574,0.24499 -0.0496,0.50658 -0.0972,1.01109 -0.14686,1.51767 0.13032,0.0311 0.26063,0.0644 0.39094,0.0976 -0.0165,0.42354 -0.0331,0.84708 -0.0496,1.27269 -0.14686,0.16194 -0.29165,0.32596 -0.43852,0.4879 0.0331,0.21177 0.0641,0.42562 0.0972,0.63739 0.21099,0.21176 0.42197,0.42353 0.63502,0.6353 l -0.0496,0.63531 c -0.14686,0.16402 -0.29165,0.32803 -0.43852,0.48997 -0.0496,0.0976 -0.0972,0.19516 -0.14686,0.29482 -0.0641,0.14533 -0.13031,0.29274 -0.19443,0.44015 0.0331,0.19516 0.0641,0.39031 0.0972,0.58755 0.0972,0.14533 0.19444,0.29274 0.29166,0.44015 -0.031,0.34256 -0.0641,0.68513 -0.0972,1.0277 -1.10456,1.49899 -2.20913,3.00006 -3.31369,4.50113 l -0.73224,0.34256 c -0.61847,0.19516 -1.23488,0.3924 -1.85335,0.58756 -1.13766,0.1308 -2.27532,0.26159 -3.41091,0.39032 -0.69914,-0.0312 -1.39829,-0.0644 -2.09743,-0.0976 -0.56883,-0.0166 -1.13766,-0.0311 -1.70649,-0.0478 -0.73017,-0.18062 -1.46241,-0.35917 -2.19258,-0.5398 l -0.73224,-0.58548 c -0.63295,-0.44222 -1.26797,-0.88237 -1.90093,-1.32251 -1.00734,-1.09207 -2.01469,-2.18621 -3.0241,-3.27827 v -0.78271 h 0.5378 c -0.0972,-0.24499 -0.1965,-0.48998 -0.29372,-0.73497 -0.22753,-0.47128 -0.45507,-0.94465 -0.6826,-1.41802 v -0.44014 c 0.31027,-0.2616 0.61848,-0.5232 0.92668,-0.78272 -0.27511,-0.45675 -0.55228,-0.91351 -0.82946,-1.37027 -0.0145,-0.0664 -0.031,-0.1308 -0.0476,-0.19723 0.2751,-0.37371 0.55228,-0.7495 0.82945,-1.12528 -0.0827,-0.22838 -0.16341,-0.45676 -0.24408,-0.68514 -0.17995,-0.22838 -0.35784,-0.45675 -0.5378,-0.68513 -0.0476,-0.17855 -0.0972,-0.3571 -0.14479,-0.53773 0.22753,-0.29274 0.45506,-0.58755 0.68259,-0.88029 -0.0165,-0.27821 -0.0331,-0.55434 -0.0496,-0.83255 -0.0807,-0.13079 -0.16134,-0.26159 -0.24408,-0.39032 0.0165,-0.1474 0.0331,-0.29481 0.0496,-0.44014 0.14687,-0.0166 0.29166,-0.0332 0.43852,-0.0498 0.6495,0.44015 1.30107,0.88029 1.95057,1.32044 3.67154,1.5509 12.70869,2.41458 18.47766,-1.07545 z"
     style="fill:#fba246;fill-rule:evenodd;stroke:#000000;stroke-width:0.911601px"
     id="path7284" />
  <path
     d="m 274.22004,252.01115 c -0.0807,-0.24499 0.28338,-0.15364 0.20271,-0.39863 -1.54308,-0.0166 -3.08823,-0.0332 -4.63131,-0.0498 v -0.19516 c 1.17076,-0.0332 2.33945,-0.0644 3.5102,-0.0976 0.58538,-0.11419 1.17076,-0.22838 1.75406,-0.34257 0.31027,-0.0498 0.61848,-0.0976 0.92668,-0.14741 0.63502,-0.42354 1.26797,-0.84708 1.90093,-1.27269 -0.0145,-0.0644 -0.031,-0.12872 -0.0476,-0.19516 -1.23488,0.0976 -2.46976,0.19516 -3.70463,0.29482 -0.43852,0.081 -0.8791,0.16194 -1.31762,0.24291 -0.81291,-0.0478 -1.62375,-0.0976 -2.43666,-0.14533 -0.3082,-0.0332 -0.61847,-0.0664 -0.92667,-0.0976 -0.48816,-0.22838 -0.97425,-0.45676 -1.46241,-0.68514 3.4771,-0.19723 7.68644,-0.19723 11.45726,-2.93777 -4.92503,1.6983 -9.06818,1.2893 -12.43358,0.83254 4.3231,-0.81593 8.59863,-0.99448 12.82245,-4.06098 -6.12681,2.28378 -10.49749,1.48446 -13.99114,1.12528 4.58167,-0.94673 11.21319,-1.1585 13.45541,-3.57308 -6.48466,1.71284 -12.09022,1.4201 -15.65006,0.58756 2.91034,-0.39032 5.81861,-0.78272 8.72688,-1.17304 -1.41276,-0.13079 -2.8276,-0.26159 -4.24036,-0.39239 2.66419,-0.45676 5.33045,-0.91351 7.99464,-1.37027 -3.55984,0.17855 -10.87189,1.14189 -16.38023,-2.25056 0.77982,0.65191 1.80371,1.10867 2.33944,1.95782 -0.8129,-0.0997 -1.62581,-0.19723 -2.43666,-0.29481 0.0476,0.2782 0.0972,0.55433 0.1448,0.83254 0.82945,0.52112 1.65891,1.04431 2.4863,1.56543 -0.97425,0.45675 -1.95057,0.91351 -2.92482,1.37027 1.21833,0.39239 2.43873,0.78271 3.65706,1.1751 -1.17076,0.4879 -2.73038,0 -3.5102,1.46785 1.41277,0.66853 3.41298,0.79933 4.24037,2.00558 -1.21833,0.0976 -2.58352,-0.78272 -3.65499,0.29481 1.26591,0.7495 2.53388,1.499 3.80185,2.25057 -0.69914,-0.0976 -1.39829,-0.19724 -2.09536,-0.29482 0.9908,1.12528 2.37254,1.97236 3.36334,3.09764 3.29921,0.30935 5.76069,0.56264 9.0599,0.87407 z"
     style="fill:#ffc080;fill-rule:evenodd;stroke-width:1"
     id="path6556" />
  <path
     d="m 278.51833,236.5188 c -7.18381,2.30039 -13.14721,1.0277 -16.57674,0 0.42197,0.14741 0.84601,0.29274 1.26798,0.44015 5.9303,2.08862 12.44806,0.60416 14.72338,-0.0498 0.19443,-0.12872 0.38887,-0.25952 0.58538,-0.39032 z"
     style="fill:#ffffff;fill-rule:evenodd;stroke-width:1"
     id="path7286" />
  <path
     d="m 282.77524,219.8991 c -0.71983,4.22915 -1.43966,8.46037 -2.15742,12.68952 -0.86462,1.57996 -2.65798,2.25056 -4.28587,2.73016 -1.77475,0.53565 -3.65499,0.50866 -5.48765,0.41731 -0.50885,0.36748 -1.76855,-0.35295 -0.71776,-0.58341 1.46861,-0.17024 3.00549,0.0623 4.40998,-0.52734 1.99607,-0.78687 3.90527,-1.93083 5.30976,-3.58346 0.85635,-3.74956 1.7127,-7.49703 2.56905,-11.24659 0.11997,0.0353 0.23994,0.0685 0.35991,0.10381 z"
     style="fill:#ffffff;fill-opacity:0.64286;fill-rule:evenodd;stroke-width:1"
     id="path3629" />
  <path
     d="m 266.68253,232.4599 -0.47782,-2.04087 0.11997,-8.4666 0.29786,-0.99241 -0.0145,-7.09218 -0.6433,-0.62285 -0.11997,-4.20424 c 2.99928,-2.39589 5.62417,-2.03879 8.13737,0.0415 l -0.11997,4.16271 -0.59779,0.60001 -0.11997,7.14201 0.35784,0.96126 -0.11997,10.27079 -0.71776,0.48167 -1.67339,-0.24083 -0.59986,-0.72043 h -1.07561 l -1.07767,0.84085 z"
     style="fill:#c1c1c1;fill-rule:evenodd;stroke:#9b989f;stroke-width:0.911601px"
     id="path3619" />
  <path
     d="M 267.68367,210.96744 V 229.8813"
     style="fill:none;stroke:#ffffff;stroke-width:0.911601px"
     id="path5096" />
  <path
     d="M 272.21156,210.96744 V 229.8813"
     style="fill:none;stroke:#ffffff;stroke-width:0.911601px"
     id="path5824" />
  <path
     d="M 268.43866,210.96744 V 229.8813"
     style="fill:none;stroke:#8f8f92;stroke-width:0.911601px"
     id="path5826" />
  <path
     d="M 271.4607,210.96744 V 229.8813"
     style="fill:none;stroke:#8f8f92;stroke-width:0.911601px"
     id="path6554" />
  <path
     d="m 277.92782,238.46758 -1.44514,0.64349 -0.38542,0.32364 -0.25701,0.19305 -1.92691,-0.0643 -0.0321,-0.19305 0.99542,-0.25929 c 0,0 0.70673,-0.0643 0.83514,-0.0965 0.12841,-0.0322 0.67449,-0.28957 0.67449,-0.28957 l 1.12401,-0.64539 h 0.44954 z"
     style="fill:#ffffff;fill-rule:evenodd;stroke-width:0.9116"
     id="path8741" />
  <path
     d="m 278.89137,240.88447 -0.73878,-0.0322 -0.51384,0.2574 -0.80289,0.32364 -0.61019,0.41827 -0.51383,0.16088 -0.8029,0.0643 -0.28906,0.0965 0.32112,0.13059 h 0.93131 l 0.80289,0.1287 0.64243,-0.1287 0.7386,-0.64539 c 0,0 0.51383,-0.22522 0.64243,-0.28957 0.12841,-0.0643 0.41748,-0.19494 0.41748,-0.19494 z"
     style="fill:#ffffff;fill-rule:evenodd;stroke-width:0.9116"
     id="path8743" />
  <path
     d="m 279.27679,243.52848 -0.93149,0.51479 -0.61019,0.38799 -0.44953,0.35392 -1.05991,0.22523 h -0.41747 l 1.12401,0.35581 0.89925,-0.38799 0.93131,-0.45044 0.28907,-0.29147 z"
     style="fill:#ffffff;fill-rule:evenodd;stroke-width:0.9116"
     id="path8745" />
  <path
     d="m 278.79502,246.84815 c 0,0 -1.79851,0.70974 -1.86281,0.83844 -0.0643,0.1287 -0.54588,0.32175 -0.54588,0.32175 l -1.09197,0.1287 -0.35336,0.19494 1.05991,0.1287 1.09196,-0.35582 0.80289,-0.0322 0.61019,-0.41828 0.28907,-0.32174 z"
     style="fill:#ffffff;fill-rule:evenodd;stroke-width:0.9116"
     id="path8747" />
  <path
     d="m 271.79579,252.48451 c -0.1179,1.08584 -0.029,2.60351 -0.14686,3.68935 -1.06526,-0.0125 -1.98573,0.15986 -3.4047,-0.27821 -0.31648,-1.00279 -0.86049,-2.57652 -1.17903,-3.57931 0.20684,0.0519 0.29372,0.081 0.52746,0.0955 0.23374,0.0145 0.6164,0.006 0.84393,0.0208 0.2296,0.0145 0.4861,0.006 0.70535,0.0187 0.22133,0.0145 0.43438,0.0208 0.64123,0.0312 0.20685,0.0125 0.40749,0.0208 0.59779,0.0291 0.1903,0.006 0.63088,0.027 0.80256,0.0291 0.16962,0.002 0.0786,-0.0145 0.22754,-0.0208 0.14686,-0.004 0.26476,-0.0228 0.38473,-0.0353 z"
     style="fill:#ffffff;fill-opacity:0.31548;fill-rule:evenodd;stroke-width:1"
     id="path10207" />
  <path
     d="m 290.18864,184.82021 -2.76554,1.89969 -0.37853,2.70109 3.48537,-1.52183 z"
     style="fill:#fefefe;fill-rule:evenodd;stroke-width:1"
     id="path16869" />
  <text
     xml:space="preserve"
     id="text26044"
     style="font-style:normal;font-weight:normal;font-size:12.5593px;line-height:1.25;font-family:sans-serif;white-space:pre;shape-inside:url(#rect26046);fill:#000000;fill-opacity:1;stroke:none"
     transform="translate(-30.051487,-43.415337)" />
  <rect
     style="fill:#cccccc;fill-opacity:1;stroke:#000000;stroke-width:4;stroke-miterlimit:4;stroke-dasharray:none"
     id="switch1-frame-2"
     width="96"
     height="96.000008"
     x="21.954796"
     y="8.6190605" />
  <circle
     style="fill:#000000;fill-opacity:1;stroke:#000000;stroke-width:4;stroke-miterlimit:4;stroke-dasharray:none"
     id="switch1-1-9"
     cx="44.9548"
     cy="71.619049"
     r="3">
    <title
       id="title4557-5">1</title>
  </circle>
  <circle
     style="fill:#000000;fill-opacity:1;stroke:#000000;stroke-width:4;stroke-miterlimit:4;stroke-dasharray:none"
     id="switch1-2-1"
     cx="94.954803"
     cy="71.619049"
     r="3">
    <title
       id="title4559-7">2</title>
  </circle>
  <path
     style="fill:#ffffff;stroke:#333333;stroke-width:4;stroke-linecap:butt;stroke-linejoin:miter;stroke-miterlimit:4;stroke-dasharray:none;stroke-opacity:1"
     d="m 41.93428,57.732525 55.902003,-0.001"
     id="switch1-sel-4" />
  <path
     style="fill:#ffffff;stroke:#333333;stroke-width:4;stroke-linecap:butt;stroke-linejoin:miter;stroke-miterlimit:4;stroke-dasharray:none;stroke-opacity:1"
     d="m 69.079311,26.688971 10e-4,31.756104"
     id="switch1-sel-1-1" />
  <text
     id="text4820-3"
     y="107.9319"
     x="146.88492"
     style="font-style:normal;font-weight:normal;font-size:10.5148px;line-height:1.25;font-family:sans-serif;letter-spacing:0px;word-spacing:0px;fill:#000000;fill-opacity:1;stroke:none;stroke-width:1"
     xml:space="preserve"><tspan
       style="fill:#000000;fill-opacity:0.501961;stroke-width:1"
       y="107.9319"
       x="146.88492"
       id="tspan4818-8">sequr.be</tspan></text>
  <path
     style="fill:#800000;fill-opacity:1;stroke:#550000;stroke-width:4.5523px;stroke-linecap:butt;stroke-linejoin:miter;stroke-opacity:1"
     d="M 45.23711,71.276375 H 7.91558"
     id="path1123-04" />
  <rect
     style="fill:#cccccc;fill-opacity:1;stroke:#000000;stroke-width:4;stroke-miterlimit:4;stroke-dasharray:none"
     id="switch1-frame-6-4"
     width="96"
     height="96.000008"
     x="222.47446"
     y="8.6190605" />
  <circle
     style="fill:#000000;fill-opacity:1;stroke:#000000;stroke-width:4;stroke-miterlimit:4;stroke-dasharray:none"
     id="switch1-1-2-3"
     cx="245.47446"
     cy="71.619064"
     r="3">
    <title
       id="title4557-0-9">1</title>
  </circle>
  <circle
     style="fill:#000000;fill-opacity:1;stroke:#000000;stroke-width:4;stroke-miterlimit:4;stroke-dasharray:none"
     id="switch1-2-8-5"
     cx="295.47446"
     cy="71.619064"
     r="3">
    <title
       id="title4559-6-7">2</title>
  </circle>
  <path
     style="fill:#ffffff;stroke:#333333;stroke-width:4;stroke-linecap:butt;stroke-linejoin:miter;stroke-miterlimit:4;stroke-dasharray:none;stroke-opacity:1"
     d="m 242.45389,57.732535 55.90201,-10e-4"
     id="switch1-sel-6-7" />
  <path
     style="fill:#ffffff;stroke:#333333;stroke-width:4;stroke-linecap:butt;stroke-linejoin:miter;stroke-miterlimit:4;stroke-dasharray:none;stroke-opacity:1"
     d="m 269.59893,26.688981 10e-4,31.756104"
     id="switch1-sel-1-5-1" />
  <path
     style="fill:#800000;fill-opacity:1;stroke:#550000;stroke-width:4.5523px;stroke-linecap:butt;stroke-linejoin:miter;stroke-opacity:1"
     d="M 245.75673,71.276385 H 206.09145"
     id="path1123-0-4" />
  <path
     style="fill:#800000;fill-opacity:1;stroke:#aa0000;stroke-width:4.5523px;stroke-linecap:butt;stroke-linejoin:miter;stroke-opacity:1"
     d="M 132.88321,71.877475 H 93.217933"
     id="path1123-0-7-83" />
  <path
     style="fill:#800000;fill-opacity:1;stroke:#aa0000;stroke-width:4.5523px;stroke-linecap:butt;stroke-linejoin:miter;stroke-opacity:1"
     d="M 334.88321,71.877475 H 295.21793"
     id="path1123-0-7-8-1" />
  <path
     style="fill:#800000;fill-opacity:1;stroke:#550000;stroke-width:4.88912px;stroke-linecap:butt;stroke-linejoin:miter;stroke-opacity:1"
     d="M 208.36557,129.15032 V 69.016295"
     id="path1123-0-8-2" />
  <path
     style="fill:#800000;fill-opacity:1;stroke:#aa0000;stroke-width:4.5523px;stroke-linecap:butt;stroke-linejoin:miter;stroke-opacity:1"
     d="M 335.80307,117.31438 V 69.610035"
     id="path1123-0-8-4-6"
     sodipodi:nodetypes="cc" />
  <path
     style="fill:#800000;fill-opacity:1;stroke:#550000;stroke-width:4.55229px;stroke-linecap:butt;stroke-linejoin:miter;stroke-opacity:1"
     d="M 210.61558,126.86907 H 8.79404"
     id="path1123-7-1"
     sodipodi:nodetypes="cc" />
  <path
     id="switchwire2-5"
     d="m 130.86878,74.155075 v 41.162795 l 205.19314,-9.2e-4"
     style="fill:none;fill-opacity:1;stroke:#aa0000;stroke-width:4;stroke-linecap:butt;stroke-linejoin:miter;stroke-miterlimit:4;stroke-dasharray:none;stroke-opacity:1"
     sodipodi:nodetypes="ccc">
    <title
       id="title4763-0">Switch Wire 2</title>
  </path>
  <text
     xml:space="preserve"
     style="font-style:normal;font-weight:normal;font-size:12.5593px;line-height:1.25;font-family:sans-serif;fill:#b3b3b3;fill-opacity:1;stroke:none"
     x="135.9548"
     y="15.244068"
     id="text30738-8"><tspan
       sodipodi:role="line"
       id="tspan30736-6"
       x="135.9548"
       y="15.244068"
       style="font-style:normal;font-variant:normal;font-weight:bold;font-stretch:normal;font-size:12.5593px;font-family:sans-serif;-inkscape-font-specification:'sans-serif Bold';fill:#b3b3b3">2-way</tspan><tspan
       sodipodi:role="line"
       x="135.9548"
       y="30.943195"
       id="tspan30740-6"
       style="font-style:normal;font-variant:normal;font-weight:bold;font-stretch:normal;font-size:12.5593px;font-family:sans-serif;-inkscape-font-specification:'sans-serif Bold';fill:#b3b3b3">momentary</tspan><tspan
       sodipodi:role="line"
       x="135.9548"
       y="46.642323"
       id="tspan30742-3"
       style="font-style:normal;font-variant:normal;font-weight:bold;font-stretch:normal;font-size:12.5593px;font-family:sans-serif;-inkscape-font-specification:'sans-serif Bold';fill:#b3b3b3">switch</tspan></text>
</svg>
